HIERARCHY
ROOT root
{
	OFFSET 0.000000 0.000000 0.000000
	CHANNELS 6 Xposition Yposition Zposition Zrotation Yrotation Xrotation
	JOINT lhip
	{
		OFFSET 0.058581 -0.082280 -0.017664
		CHANNELS 3 Zrotation Yrotation Xrotation
		JOINT lknee
		{
			OFFSET 0.043451 -0.386469 0.008037
			CHANNELS 3 Zrotation Yrotation Xrotation
			JOINT lankle
			{
				OFFSET -0.014790 -0.426874 -0.037428
				CHANNELS 3 Zrotation Yrotation Xrotation
				JOINT ltoe
				{
					OFFSET 0.041054 -0.060286 0.122042
					CHANNELS 3 Zrotation Yrotation Xrotation
					End Site
					{
						OFFSET 0.000000 0.000000 0.000000
					}
				}
			}
		}
	}
	JOINT rhip
	{
		OFFSET -0.060310 -0.090513 -0.013543
		CHANNELS 3 Zrotation Yrotation Xrotation
		JOINT rknee
		{
			OFFSET -0.043257 -0.383688 -0.004843
			CHANNELS 3 Zrotation Yrotation Xrotation
			JOINT rankle
			{
				OFFSET 0.019056 -0.420046 -0.034562
				CHANNELS 3 Zrotation Yrotation Xrotation
				JOINT rtoe
				{
					OFFSET -0.034840 -0.062106 0.130323
					CHANNELS 3 Zrotation Yrotation Xrotation
					End Site
					{
						OFFSET 0.000000 0.000000 0.000000
					}
				}
			}
		}
	}
	JOINT lowerback
	{
		OFFSET 0.004439 0.124404 -0.038385
		CHANNELS 3 Zrotation Yrotation Xrotation
		JOINT upperback
		{
			OFFSET 0.004488 0.137956 0.026820
			CHANNELS 3 Zrotation Yrotation Xrotation
			JOINT chest
			{
				OFFSET -0.002265 0.056032 0.002855
				CHANNELS 3 Zrotation Yrotation Xrotation
				JOINT lowerneck
				{
					OFFSET -0.013390 0.211636 -0.033468
					CHANNELS 3 Zrotation Yrotation Xrotation
					JOINT upperneck
					{
						OFFSET 0.010113 0.088937 0.050410
						CHANNELS 3 Zrotation Yrotation Xrotation
						End Site
						{
							OFFSET 0.000000 0.000000 0.000000
						}
					}
				}
				JOINT lclavicle
				{
					OFFSET 0.071702 0.114000 -0.018898
					CHANNELS 3 Zrotation Yrotation Xrotation
					JOINT lshoulder
					{
						OFFSET 0.122921 0.045205 -0.019046
						CHANNELS 3 Zrotation Yrotation Xrotation
						JOINT lelbow
						{
							OFFSET 0.255332 -0.015649 -0.022946
							CHANNELS 3 Zrotation Yrotation Xrotation
							JOINT lwrist
							{
								OFFSET 0.265709 0.012698 -0.007375
								CHANNELS 3 Zrotation Yrotation Xrotation
								End Site
								{
									OFFSET 0.000000 0.000000 0.000000
								}
							}
						}
					}
				}
				JOINT rclavicle
				{
					OFFSET -0.082954 0.112472 -0.023707
					CHANNELS 3 Zrotation Yrotation Xrotation
					JOINT rshoulder
					{
						OFFSET -0.113228 0.046853 -0.008472
						CHANNELS 3 Zrotation Yrotation Xrotation
						JOINT relbow
						{
							OFFSET -0.260127 -0.014369 -0.031269
							CHANNELS 3 Zrotation Yrotation Xrotation
							JOINT rwrist
							{
								OFFSET -0.269108 0.006794 -0.006027
								CHANNELS 3 Zrotation Yrotation Xrotation
								End Site
								{
									OFFSET 0.000000 0.000000 0.000000
								}
							}
						}
					}
				}
			}
		}
	}
}
MOTION
Frames: 11
Frame Time: 0.033333
-0.640026 0.483043 0.994751 20.707660 -0.159752 82.759972 -4.183430 -0.752924 3.925593 -3.753295 -13.730813 5.927151 7.395883 9.454065 -10.870801 0.000000 -0.000000 0.000000 -1.574704 0.135228 -17.788823 -0.278451 -5.723464 62.636045 1.896287 -11.886358 -0.743691 0.000000 -0.000000 0.000000 -1.103189 -1.808626 14.266300 2.690363 1.626807 -2.016081 0.550999 -1.342612 2.993862 3.101084 7.726974 -1.913106 -4.746445 3.266553 12.707700 -29.020460 6.134738 1.813455 -55.116324 -4.658956 8.800004 9.729330 -28.145678 6.196408 -6.006896 -1.855253 -5.961990 31.913464 0.002014 1.209722 53.250378 7.377775 14.475569 -14.969937 22.750762 -13.084824 6.187469 1.385241 -7.933355 
-0.630577 0.459771 0.994645 22.088141 0.489295 82.365552 -3.679545 -0.194229 5.835295 -3.615343 -15.032041 6.170937 7.211087 9.153034 -11.907171 0.000000 -0.000000 0.000000 -1.105002 0.155211 -19.183576 0.012728 -6.837434 56.790408 2.367495 -11.338338 -6.098540 0.000000 -0.000000 0.000000 -0.682915 -2.551475 14.928638 2.707216 1.319075 -2.477145 0.662280 -1.743737 2.988018 3.364933 8.459589 -1.863557 -4.913767 3.016194 13.221236 -28.876427 6.182242 1.609792 -54.881388 -5.475477 8.769403 10.135064 -29.622748 4.984335 -4.561949 -2.046615 -6.476378 32.098146 -0.144802 1.002051 53.107058 7.090557 14.203045 -14.737438 22.687526 -12.862527 6.090432 1.407167 -7.821558 
-0.620856 0.435997 0.993578 23.165470 1.189036 81.814464 -2.995814 0.275400 8.031296 -3.389768 -16.129057 6.353360 6.833204 9.141848 -13.596169 0.000000 -0.000000 0.000000 -0.618914 0.603650 -19.280324 0.138362 -8.246892 48.347994 3.442096 -11.049137 -8.701318 0.000000 -0.000000 0.000000 -0.142317 -3.198216 15.639660 2.614924 1.224145 -2.596608 0.843002 -1.928572 2.992671 3.162398 8.576086 -1.936553 -4.755783 2.705484 13.325414 -28.654965 5.982415 1.622473 -54.852350 -6.369701 8.748468 10.622312 -31.480341 3.808767 -3.635786 -2.416234 -7.228731 32.163424 -0.191652 0.809851 52.886766 6.755139 13.910512 -14.485619 22.781805 -12.594586 5.717216 1.347396 -7.786937 
-0.612049 0.413444 0.991257 23.760908 1.301458 81.789178 -2.751889 0.547472 9.633412 -3.491998 -16.661638 6.483302 6.360197 8.770010 -14.533454 0.000000 -0.000000 0.000000 -0.470153 1.115876 -19.183486 0.443947 -8.660815 38.368787 3.876508 -10.753310 -9.698305 0.000000 -0.000000 0.000000 -0.276220 -3.449250 15.926203 2.455662 1.281168 -2.616696 1.138322 -2.028201 3.050655 3.100847 8.859036 -2.404432 -4.525609 2.367992 13.506013 -28.466454 6.006948 1.527102 -54.750101 -7.430656 9.005844 11.027078 -33.516000 3.099601 -2.566469 -2.937781 -7.707983 32.407599 -0.252767 0.584633 52.855257 6.829048 13.909681 -14.619861 22.241678 -12.586468 5.290198 1.326910 -7.565090 
-0.604366 0.391750 0.988320 23.706370 1.300276 82.467422 -2.531482 0.713292 10.376156 -3.594019 -16.492727 6.524802 6.214041 8.479038 -15.651444 0.000000 -0.000000 0.000000 0.036261 0.610722 -19.389949 0.902086 -7.327677 27.798488 4.789389 -9.580270 -7.673831 0.000000 -0.000000 0.000000 -0.249447 -2.963725 15.519965 2.260083 1.129923 -2.589394 1.346186 -2.002682 3.095293 2.800402 8.837958 -2.709949 -4.113254 2.414877 13.298953 -28.090136 6.021048 1.451419 -54.866605 -8.285885 9.378793 11.534609 -35.561601 2.536979 -1.542529 -3.543665 -7.898630 32.361635 -0.241591 0.695302 52.912882 7.123492 13.911046 -14.525226 21.718815 -12.455066 4.907475 1.216359 -7.408328 
-0.595971 0.369320 0.985515 23.789273 0.965330 83.012718 -2.833024 0.768297 11.201283 -3.648842 -16.107640 6.802989 6.002699 8.407163 -16.514805 0.000000 -0.000000 0.000000 0.303784 0.488165 -18.879080 0.914077 -5.597442 18.168064 6.067959 -8.306129 -4.422593 0.000000 -0.000000 0.000000 -0.462445 -2.513859 15.011677 2.024874 0.885770 -2.296196 1.484012 -1.912785 3.055945 2.441198 8.639660 -2.857865 -3.694402 2.503662 13.178042 -27.648886 5.802140 1.599330 -54.974341 -9.036884 9.753510 12.102196 -37.275104 1.648758 -1.001556 -3.975873 -8.267953 32.160750 -0.102581 1.191182 53.088430 7.424692 13.999739 -14.652290 21.376705 -12.670197 4.689097 1.101673 -7.582161 
-0.587599 0.346428 0.982890 24.090457 0.622205 83.436832 -3.202101 0.905386 11.765953 -3.849070 -15.291356 7.782920 5.777597 8.596508 -17.253391 0.000000 -0.000000 0.000000 0.479924 0.713252 -18.086532 0.731414 -3.780500 11.420032 8.470334 -6.811007 -3.455681 0.000000 -0.000000 0.000000 -0.508982 -2.281827 14.643133 1.781741 0.777309 -2.161635 1.419921 -1.899888 3.080513 2.152531 8.638824 -2.942017 -3.541516 2.538776 13.101329 -27.628969 5.637948 1.464451 -54.731285 -9.651754 10.032326 12.293341 -38.338902 1.269248 -0.752591 -4.485266 -7.729528 32.123908 -0.190542 0.819358 53.241505 7.438017 14.185122 -14.499513 20.769880 -12.544002 4.714098 1.085255 -7.241517 
-0.579647 0.322660 0.980356 24.396166 0.378527 83.880088 -3.389568 1.101937 12.237527 -4.067330 -15.291363 9.116907 5.548959 8.819832 -17.887072 0.000000 -0.000000 0.000000 0.581053 1.103747 -17.882697 0.952354 -2.479057 9.436810 9.737488 -5.205709 -4.086002 0.000000 -0.000000 0.000000 -0.662747 -2.272765 14.225613 1.669345 0.818044 -2.069736 1.366904 -1.803536 3.211461 2.036706 9.009992 -3.274297 -3.623411 2.390927 13.266973 -27.579971 5.552147 0.975590 -54.607011 -9.894328 10.327258 12.135478 -38.965834 1.185712 -0.708138 -4.702868 -7.237090 32.221264 -0.312114 0.588192 53.143053 7.389401 14.241188 -14.282106 20.596151 -12.244192 4.914464 1.120752 -7.021352 
-0.571633 0.296742 0.979241 25.072925 0.541184 83.925728 -2.886945 1.002848 13.049196 -4.479518 -16.253075 10.941319 5.077611 8.661080 -17.993294 0.000000 -0.000000 0.000000 1.129740 1.637462 -17.371364 1.030213 -1.972886 11.010532 9.665302 -4.780269 -3.933858 0.000000 -0.000000 0.000000 -0.533380 -2.513726 13.987496 1.806609 0.846856 -1.767350 1.302671 -1.763021 3.236837 2.034876 9.142909 -3.420477 -3.787342 2.407715 13.240269 -27.814248 5.441977 0.830928 -54.597647 -9.944983 10.419489 12.239632 -39.132194 1.367741 -0.771789 -4.783018 -6.998871 32.349418 -0.358755 0.441979 52.943109 7.176794 14.104281 -14.236913 20.488543 -12.134411 5.143097 1.081340 -7.037934 
-0.563246 0.270042 0.979082 25.788070 0.500701 84.153068 -2.880369 0.386023 13.454416 -4.797268 -16.942711 13.291131 4.329556 8.654976 -17.359935 0.000000 -0.000000 0.000000 1.619763 2.481020 -16.399040 0.551207 -1.905297 12.372434 7.879138 -4.698134 -2.468539 0.000000 -0.000000 0.000000 -0.559725 -2.721397 13.634624 1.877907 0.823012 -1.568490 1.309553 -1.765806 3.272430 1.833776 8.982944 -3.757745 -3.879941 2.769999 12.909168 -27.936101 5.595174 0.753103 -54.828976 -9.700394 10.513855 12.254382 -39.007190 1.804432 -1.153565 -4.658250 -7.056723 32.387969 -0.544899 0.301085 52.889704 6.953576 14.145940 -14.238042 20.391903 -12.007660 5.180919 1.020256 -7.419632 
-0.554867 0.244087 0.981789 26.182764 0.688606 84.701852 -2.906054 -0.443697 12.527818 -5.365551 -16.942934 17.352309 3.243016 8.476978 -16.028342 0.000000 -0.000000 0.000000 2.056135 2.677964 -15.973580 0.586213 -1.395237 12.951711 6.101602 -5.553770 -0.918426 0.000000 -0.000000 0.000000 -0.160181 -2.696250 13.131804 2.034710 0.773260 -1.468996 1.273921 -1.765571 3.257387 1.549075 8.915503 -4.377224 -4.114177 3.368857 12.973678 -28.579479 5.857325 0.542343 -54.960283 -9.344894 10.593523 12.310471 -38.073260 1.961121 -1.585007 -4.604960 -7.154276 32.449525 -0.574802 0.482619 52.490830 6.982108 14.308328 -14.060009 19.997915 -12.118554 5.184769 0.900838 -7.999346 
